# xmcd CD database file
#
# Track frame offsets:
#	150
#	16505
#	30260
#	44834
#	61662
#	79245
#	101380
#	117197
#	127543
#	150474
#
# Disc length: 2248 seconds
#
# Revision: 0
# Processed by: cddbd v1.5.2PL0 Copyright (c) Steve Scherf et al.
# Submitted via: CDex 1.51
#
DISCID=6208c60a
DTITLE=Body and Soul - Complete Relaxation
DYEAR=1900
DGENRE=New Age
TTITLE0=Serenity Shores
TTITLE1=New Day
TTITLE2=Still of Night
TTITLE3=A New Dawn
TTITLE4=The Awakening
TTITLE5=Healing Waters
TTITLE6=Reflections
TTITLE7=Heart to Heart
TTITLE8=Pure Peace
TTITLE9=Journey
EXTD=
EXTT0=
EXTT1=
EXTT2=
EXTT3=
EXTT4=
EXTT5=
EXTT6=
EXTT7=
EXTT8=
EXTT9=
PLAYORDER=
